<svg width="28" height="26" viewBox="0 0 28 26" fill="none" xmlns="http://www.w3.org/2000/svg">
<g filter="url(#filter0_d_541_243)">
<path d="M14 21L13.6954 21.6854C13.8893 21.7715 14.1107 21.7715 14.3046 21.6854L14 21ZM12.76 6.38071L13.2999 5.86011L13.2999 5.86011L12.76 6.38071ZM15.24 6.38071L14.7001 5.86011L14.7001 5.86011L15.24 6.38071ZM13.2802 6.92016L12.7403 7.44076L12.7403 7.44076L13.2802 6.92016ZM14.7198 6.92016L14.18 6.39956L14.18 6.39956L14.7198 6.92016ZM12.2201 6.90131L12.7403 7.44076L13.82 6.39956L13.2999 5.86011L12.2201 6.90131ZM15.2597 7.44076L15.7799 6.90131L14.7001 5.86011L14.18 6.39956L15.2597 7.44076ZM18.4543 4.25C17.0408 4.25 15.691 4.83256 14.7001 5.86011L15.7799 6.90131C16.494 6.16076 17.4566 5.75 18.4543 5.75V4.25ZM23.75 10.714C23.75 8.72323 23.2036 7.10798 22.2392 5.97749C21.2683 4.83942 19.92 4.25 18.4543 4.25V5.75C19.4991 5.75 20.4237 6.16058 21.098 6.95102C21.7788 7.74904 22.25 8.99082 22.25 10.714H23.75ZM9.54569 5.75C10.5434 5.75 11.506 6.16076 12.2201 6.90131L13.2999 5.86011C12.309 4.83256 10.9592 4.25 9.54569 4.25V5.75ZM5.75 10.714C5.75 8.98756 6.21411 7.74613 6.89008 6.94951C7.5583 6.16201 8.48125 5.75 9.54569 5.75V4.25C8.06444 4.25 6.71455 4.83799 5.74634 5.979C4.78589 7.1109 4.25 8.72648 4.25 10.714H5.75ZM14 21C14.3046 20.3146 14.3048 20.3147 14.3049 20.3148C14.3049 20.3148 14.305 20.3148 14.305 20.3148C14.305 20.3148 14.3048 20.3147 14.3045 20.3146C14.304 20.3144 14.3029 20.3139 14.3012 20.3131C14.298 20.3117 14.2926 20.3092 14.2852 20.3059C14.2704 20.2991 14.2473 20.2885 14.2167 20.2742C14.1554 20.2455 14.0636 20.2018 13.9456 20.1435C13.7097 20.0269 13.3698 19.8521 12.9606 19.6226C12.1406 19.1627 11.0513 18.488 9.96625 17.6268C7.75597 15.8726 5.75 13.4953 5.75 10.714H4.25C4.25 14.2187 6.74403 16.9844 9.03375 18.8017C10.1987 19.7263 11.3594 20.4444 12.2269 20.9309C12.6615 21.1747 13.0247 21.3615 13.2809 21.4882C13.4091 21.5515 13.5107 21.5999 13.5812 21.6329C13.6164 21.6494 13.644 21.6621 13.6632 21.6708C13.6728 21.6752 13.6803 21.6786 13.6857 21.681C13.6884 21.6822 13.6906 21.6832 13.6922 21.6839C13.693 21.6843 13.6937 21.6846 13.6942 21.6848C13.6945 21.6849 13.6948 21.6851 13.6949 21.6851C13.6952 21.6853 13.6954 21.6854 14 21ZM22.25 10.714C22.25 13.4953 20.244 15.8726 18.0338 17.6268C16.9487 18.488 15.8594 19.1627 15.0394 19.6226C14.6302 19.8521 14.2903 20.0269 14.0544 20.1435C13.9364 20.2018 13.8446 20.2455 13.7833 20.2742C13.7527 20.2885 13.7296 20.2991 13.7148 20.3059C13.7074 20.3092 13.702 20.3117 13.6988 20.3131C13.6971 20.3139 13.696 20.3144 13.6955 20.3146C13.6952 20.3147 13.695 20.3148 13.695 20.3148C13.695 20.3148 13.6951 20.3148 13.6951 20.3148C13.6952 20.3147 13.6954 20.3146 14 21C14.3046 21.6854 14.3048 21.6853 14.3051 21.6851C14.3052 21.6851 14.3055 21.6849 14.3058 21.6848C14.3063 21.6846 14.307 21.6843 14.3078 21.6839C14.3094 21.6832 14.3116 21.6822 14.3143 21.681C14.3197 21.6786 14.3272 21.6752 14.3368 21.6708C14.356 21.6621 14.3836 21.6494 14.4188 21.6329C14.4893 21.5999 14.5909 21.5515 14.7191 21.4882C14.9753 21.3615 15.3385 21.1747 15.7731 20.9309C16.6406 20.4444 17.8013 19.7263 18.9662 18.8017C21.256 16.9844 23.75 14.2187 23.75 10.714H22.25ZM12.7403 7.44076C13.4285 8.15445 14.5715 8.15445 15.2597 7.44076L14.18 6.39956C14.0816 6.50151 13.9184 6.50151 13.82 6.39956L12.7403 7.44076Z" fill="#F75E5E"/>
</g>
<defs>
<filter id="filter0_d_541_243" x="0.25" y="0.25" width="27.5" height="25.5" filterUnits="userSpaceOnUse" color-interpolation-filters="sRGB">
<feFlood flood-opacity="0" result="BackgroundImageFix"/>
<feColorMatrix in="SourceAlpha" type="matrix" values="0 0 0 0 0 0 0 0 0 0 0 0 0 0 0 0 0 0 127 0" result="hardAlpha"/>
<feOffset/>
<feGaussianBlur stdDeviation="2"/>
<feComposite in2="hardAlpha" operator="out"/>
<feColorMatrix type="matrix" values="0 0 0 0 0 0 0 0 0 0 0 0 0 0 0 0 0 0 0.25 0"/>
<feBlend mode="normal" in2="BackgroundImageFix" result="effect1_dropShadow_541_243"/>
<feBlend mode="normal" in="SourceGraphic" in2="effect1_dropShadow_541_243" result="shape"/>
</filter>
</defs>
</svg>
