<svg width="28" height="26" viewBox="0 0 28 26" fill="none" xmlns="http://www.w3.org/2000/svg">
<g filter="url(#filter0_d_541_243)">
<path d="M14 21C14 21 23 17 23 10.714C23 7 20.9648 5 18.4543 5C17.2487 5 16.0925 5.49666 15.24 6.38071L14.7198 6.92016C14.3266 7.32798 13.6734 7.32798 13.2802 6.92016L12.76 6.38071C11.9075 5.49666 10.7513 5 9.54569 5C7 5 5 7 5 10.714C5 17 14 21 14 21Z" fill="#F75E5E"/>
<path d="M14 21C14 21 23 17 23 10.714C23 7 20.9648 5 18.4543 5C17.2487 5 16.0925 5.49666 15.24 6.38071L14.7198 6.92016C14.3266 7.32798 13.6734 7.32798 13.2802 6.92016L12.76 6.38071C11.9075 5.49666 10.7513 5 9.54569 5C7 5 5 7 5 10.714C5 17 14 21 14 21Z" stroke="#F75E5E" stroke-width="1.5" stroke-linecap="round" stroke-linejoin="round"/>
</g>
<defs>
<filter id="filter0_d_541_243" x="0.25" y="0.25" width="27.5" height="25.5" filterUnits="userSpaceOnUse" color-interpolation-filters="sRGB">
<feFlood flood-opacity="0" result="BackgroundImageFix"/>
<feColorMatrix in="SourceAlpha" type="matrix" values="0 0 0 0 0 0 0 0 0 0 0 0 0 0 0 0 0 0 127 0" result="hardAlpha"/>
<feOffset/>
<feGaussianBlur stdDeviation="2"/>
<feComposite in2="hardAlpha" operator="out"/>
<feColorMatrix type="matrix" values="0 0 0 0 0 0 0 0 0 0 0 0 0 0 0 0 0 0 0.25 0"/>
<feBlend mode="normal" in2="BackgroundImageFix" result="effect1_dropShadow_541_243"/>
<feBlend mode="normal" in="SourceGraphic" in2="effect1_dropShadow_541_243" result="shape"/>
</filter>
</defs>
</svg>
